<svg id="Layer_1" data-name="Layer 1" xmlns="http://www.w3.org/2000/svg" xmlns:xlink="http://www.w3.org/1999/xlink" viewBox="0 0 313.43 65"><defs><style>.cls-1{fill:url(#linear-gradient);}.cls-2{fill:url(#linear-gradient-2);}.cls-3{fill:url(#linear-gradient-3);}.cls-4{fill:url(#linear-gradient-4);}.cls-5{fill:url(#linear-gradient-5);}.cls-6{font-size:20.26px;font-family:Raleway-Bold, Raleway;font-weight:700;letter-spacing:0.1em;}.cls-7{letter-spacing:0.08em;}.cls-8{letter-spacing:0.1em;}.cls-9{letter-spacing:0.03em;}</style><linearGradient id="linear-gradient" x1="32.5" y1="64.5" x2="32.5" y2="0.5" gradientUnits="userSpaceOnUse"><stop offset="0" stop-color="#5a170b"/><stop offset="0.51" stop-color="#b55008"/><stop offset="1" stop-color="#7e2a07"/></linearGradient><linearGradient id="linear-gradient-2" x1="38.89" y1="57.67" x2="38.89" y2="7.33" xlink:href="#linear-gradient"/><linearGradient id="linear-gradient-3" x1="40.11" y1="28.26" x2="40.11" y2="9.11" xlink:href="#linear-gradient"/><linearGradient id="linear-gradient-4" x1="17.43" y1="50.37" x2="17.43" y2="14.63" xlink:href="#linear-gradient"/><linearGradient id="linear-gradient-5" x1="39.87" y1="55.89" x2="39.87" y2="36.74" xlink:href="#linear-gradient"/></defs><path class="cls-1" d="M55.12,9.88A32,32,0,1,0,31.73,64.49h1.54A32,32,0,0,0,55.12,9.88ZM53,53a29,29,0,1,1,8.5-20.48A28.88,28.88,0,0,1,53,53Z"/><polygon class="cls-2" points="60.69 30.99 60.69 34.01 33.37 34.01 19.71 57.67 17.09 56.16 30.75 32.5 17.09 8.84 19.71 7.33 33.37 30.99 60.69 30.99"/><path class="cls-3" d="M38.68,25.23H51.52a21,21,0,0,0-1.39-2.91,20.3,20.3,0,0,0-20.85-9.93L35.7,23.51,33.09,25,24.63,10.39l1.92-.51A23.4,23.4,0,0,1,55.06,26.35l.52,1.91H38.68Z"/><path class="cls-4" d="M23.11,34.22l2.62,1.51L17.28,50.37,15.89,49a23.4,23.4,0,0,1,0-32.93l1.39-1.4,8.45,14.64-2.62,1.51L16.69,19.66a20.29,20.29,0,0,0-1.82,23,20.92,20.92,0,0,0,1.83,2.66Z"/><path class="cls-5" d="M55.11,38.25v.21l0,.19A23.34,23.34,0,0,1,26.55,55.11l-1.92-.5L33.08,40l2.62,1.51L29.28,52.6A20.36,20.36,0,0,0,51.52,39.77H38.68v-3H53v0C53.68,36.74,55.11,36.74,55.11,38.25Z"/><text class="cls-6" transform="translate(72.39 38.84)">DREAMLAND <tspan class="cls-7" x="151.8" y="0">E</tspan><tspan class="cls-8" x="165.7" y="0">S</tspan><tspan class="cls-9" x="180.04" y="0">TA</tspan><tspan x="207.41" y="0">TE</tspan></text></svg>